<svg width="1072.55498046875px" height="165.22255859375px" xmlns="http://www.w3.org/2000/svg" viewBox="-286.277490234375 -7.611279296874997 1072.55498046875 165.22255859375" style="background: rgba(0, 0, 0, 0);" preserveAspectRatio="xMidYMid"><defs><filter id="editing-hole" x="-100%" y="-100%" width="300%" height="300%"><feFlood flood-color="#000000" result="black"></feFlood><feMorphology operator="dilate" radius="2" in="SourceGraphic" result="erode"></feMorphology><feGaussianBlur in="erode" stdDeviation="4" result="blur"></feGaussianBlur><feOffset in="blur" dx="2" dy="2" result="offset"></feOffset><feComposite operator="atop" in="offset" in2="black" result="merge"></feComposite><feComposite operator="in" in="merge" in2="SourceGraphic" result="inner-shadow"></feComposite></filter></defs><g filter="url(#editing-hole)"><g transform="translate(-136.3400158882141, 116.90499877929688)"><path d="M20.11 0L0.73 0L11.10-55.33L12.10-60.06L31.58-60.06L20.11 0ZM57.06-5.37L57.06-5.37L57.06-5.37Q54.60 1.82 45.14 1.82L45.14 1.82L45.14 1.82Q38.13 1.82 33.31-6.55L33.31-6.55L33.31-6.55Q28.39-14.92 27.48-28.57L27.48-28.57L27.48-28.57Q37.49-46.87 44.41-54.42L44.41-54.42L44.41-54.42Q51.05-61.61 57.97-61.61L57.97-61.61L57.97-61.61Q61.70-61.61 64.38-59.60L64.38-59.60L64.38-59.60Q67.07-57.60 67.70-54.42L67.70-54.42L67.70-54.42Q64.61-53.14 63.15-52.14L63.15-52.14L63.15-52.14Q59.51-49.41 54.60-43.32L54.60-43.32L46.32-33.40L46.32-33.40Q44.32-31.03 43.50-29.94L43.50-29.94L43.50-29.94Q44.86-22.29 48.96-14.74L48.96-14.74L48.96-14.74Q52.87-7.55 57.06-5.37ZM99.10-15.38L99.10-15.38L99.10-15.38Q101.37-13.83 101.37-10.42L101.37-10.42L101.37-10.42Q101.37-7.01 99.64-4.82L99.64-4.82L99.64-4.82Q97.92-2.64 95.09-1.18L95.09-1.18L95.09-1.18Q89.27 1.82 82.99 1.82L82.99 1.82L82.99 1.82Q76.71 1.82 73.03 0.45L73.03 0.45L73.03 0.45Q69.34-0.91 66.88-3.46L66.88-3.46L66.88-3.46Q62.06-8.28 62.06-17.11L62.06-17.11L62.06-17.11Q62.06-30.85 69.52-39.22L69.52-39.22L69.52-39.22Q77.53-48.23 91.45-48.23L91.45-48.23L91.45-48.23Q100.10-48.23 104.38-44.59L104.38-44.59L104.38-44.59Q107.56-41.86 107.56-37.40L107.56-37.40L107.56-37.40Q107.56-21.38 79.90-21.38L79.90-21.38L79.90-21.38Q79.53-19.02 79.53-17.02L79.53-17.02L79.53-17.02Q79.53-12.83 81.40-11.24L81.40-11.24L81.40-11.24Q83.26-9.65 86.72-9.65L86.72-9.65L86.72-9.65Q90.18-9.65 93.87-11.24L93.87-11.24L93.87-11.24Q97.55-12.83 99.10-15.38ZM80.53-25.30L80.53-25.30L80.53-25.30Q87.00-25.30 90.73-29.30L90.73-29.30L90.73-29.30Q94.46-33.12 94.46-39.22L94.46-39.22L94.46-39.22Q94.46-41.31 93.68-42.45L93.68-42.45L93.68-42.45Q92.91-43.59 91.36-43.59L91.36-43.59L91.36-43.59Q89.82-43.59 88.50-43.00L88.50-43.00L88.50-43.00Q87.18-42.41 85.81-40.40L85.81-40.40L85.81-40.40Q82.45-35.85 80.53-25.30ZM149.15 1.82L149.15 1.82L149.15 1.82Q138.14 1.82 138.14-6.73L138.14-6.73L138.14-6.73Q138.23-9.10 138.96-13.10L138.96-13.10L140.59-21.48L140.59-21.48Q143.05-33.31 143.05-35.95L143.05-35.95L143.05-35.95Q143.05-41.22 139.96-41.22L139.96-41.22L139.96-41.22Q134.77-41.22 132.04-27.66L132.04-27.66L126.67 0L108.38 1.82L117.84-46.50L132.77-48.23L131.31-39.31L131.31-39.31Q135.59-48.23 148.69-48.23L148.69-48.23L148.69-48.23Q155.06-48.23 157.75-45.55L157.75-45.55L157.75-45.55Q160.43-42.86 160.43-36.85L160.43-36.85L160.43-36.85Q160.43-31.21 157.52-18.02L157.52-18.02L157.52-18.02Q156.16-12.10 156.16-9.87L156.16-9.87L156.16-9.87Q156.16-7.64 157.38-6.37L157.38-6.37L157.38-6.37Q158.61-5.10 160.43-4.91L160.43-4.91L160.43-4.91Q159.52-1.82 156.38 0L156.38 0L156.38 0Q153.24 1.82 149.15 1.82ZM196.65-10.28L196.65-10.28L196.65-10.28Q191.92-5.37 183.27-5.37L183.27-5.37L183.27-5.37Q172.44-5.37 170.17-13.29L170.17-13.29L170.17-13.29Q169.44-15.65 169.44-18.29L169.44-18.29L169.44-18.29Q169.44-20.93 169.99-23.66L169.99-23.66L174.26-46.41L192.74-48.23L187.73-21.75L187.73-21.75Q187.55-20.57 187.28-19.29L187.28-19.29L187.28-19.29Q187.00-18.02 187.00-16.70L187.00-16.70L187.00-16.70Q187.00-15.38 187.46-14.51L187.46-14.51L187.46-14.51Q187.91-13.65 188.55-13.10L188.55-13.10L188.55-13.10Q189.64-12.38 191.60-12.38L191.60-12.38L191.60-12.38Q193.56-12.38 195.24-14.74L195.24-14.74L195.24-14.74Q196.92-17.11 197.74-21.20L197.74-21.20L202.75-46.41L220.68-48.23L213.85-12.47L213.85-12.47Q210.48 5.00 203.57 11.92L203.57 11.92L203.57 11.92Q200.02 15.47 195.42 16.88L195.42 16.88L195.42 16.88Q190.83 18.29 184.91 18.29L184.91 18.29L184.91 18.29Q175.36 18.29 169.90 15.29L169.90 15.29L169.90 15.29Q164.44 12.29 164.44 7.28L164.44 7.28L164.44 7.28Q164.44 3.55 167.26 1.41L167.26 1.41L167.26 1.41Q170.08-0.73 174.45-0.73L174.45-0.73L174.45-0.73Q178.27-0.73 181.18 0.91L181.18 0.91L181.18 0.91Q182.91 1.91 183.73 3.19L183.73 3.19L183.73 3.19Q181.64 5.00 181.64 8.01L181.64 8.01L181.64 8.01Q181.64 12.01 185.28 12.01L185.28 12.01L185.28 12.01Q191.28 12.01 194.74-1.82L194.74-1.82L194.74-1.82Q195.74-5.92 196.65-10.28ZM227.91-2.73L227.91-2.73L227.91-2.73Q225.77-5.10 224.82-8.83L224.82-8.83L224.82-8.83Q223.86-12.56 223.86-18.66L223.86-18.66L223.86-18.66Q223.86-24.75 225.95-30.30L225.95-30.30L225.95-30.30Q228.05-35.85 231.87-39.86L231.87-39.86L231.87-39.86Q239.69-48.23 252.62-48.23L252.62-48.23L252.62-48.23Q257.26-48.23 260.62-46.68L260.62-46.68L276.19-48.23L269.45-12.74L269.45-12.74Q269.18-11.65 269.18-9.65L269.18-9.65L269.18-9.65Q269.18-7.64 270.41-6.37L270.41-6.37L270.41-6.37Q271.63-5.10 273.45-4.91L273.45-4.91L273.45-4.91Q272.55-1.82 269.22 0L269.22 0L269.22 0Q265.90 1.82 262.17 1.82L262.17 1.82L262.17 1.82Q258.44 1.82 255.94 0.41L255.94 0.41L255.94 0.41Q253.44-1.00 252.71-3.37L252.71-3.37L252.71-3.37Q251.25-1.09 248.16 0.36L248.16 0.36L248.16 0.36Q245.06 1.82 240.92 1.82L240.92 1.82L240.92 1.82Q236.78 1.82 233.41 0.73L233.41 0.73L233.41 0.73Q230.05-0.36 227.91-2.73ZM247.11-39.68L247.11-39.68L247.11-39.68Q246.06-38.04 245.15-35.26L245.15-35.26L245.15-35.26Q244.24-32.49 242.74-25.07L242.74-25.07L242.74-25.07Q241.24-17.65 241.24-12.38L241.24-12.38L241.24-12.38Q241.24-7.10 242.06-5.55L242.06-5.55L242.06-5.55Q242.88-4.00 244.34-4.00L244.34-4.00L244.34-4.00Q247.25-4.00 249.39-6.78L249.39-6.78L249.39-6.78Q251.52-9.55 252.34-14.47L252.34-14.47L257.17-41.13L257.17-41.13Q255.25-42.77 253.03-42.77L253.03-42.77L253.03-42.77Q250.80-42.77 249.48-42.04L249.48-42.04L249.48-42.04Q248.16-41.31 247.11-39.68ZM319.59 1.82L319.59 1.82L319.59 1.82Q308.58 1.82 308.58-6.73L308.58-6.73L308.58-6.73Q308.67-9.10 309.40-13.10L309.40-13.10L311.04-21.48L311.04-21.48Q313.50-33.31 313.50-35.95L313.50-35.95L313.50-35.95Q313.50-41.22 310.40-41.22L310.40-41.22L310.40-41.22Q305.21-41.22 302.48-27.66L302.48-27.66L297.12 0L278.82 1.82L288.29-46.50L303.21-48.23L301.76-39.31L301.76-39.31Q306.03-48.23 319.14-48.23L319.14-48.23L319.14-48.23Q325.51-48.23 328.19-45.55L328.19-45.55L328.19-45.55Q330.88-42.86 330.88-36.85L330.88-36.85L330.88-36.85Q330.88-31.21 327.96-18.02L327.96-18.02L327.96-18.02Q326.60-12.10 326.60-9.87L326.60-9.87L326.60-9.87Q326.60-7.64 327.83-6.37L327.83-6.37L327.83-6.37Q329.06-5.10 330.88-4.91L330.88-4.91L330.88-4.91Q329.97-1.82 326.83 0L326.83 0L326.83 0Q323.69 1.82 319.59 1.82ZM347.53 0L337.52 0L348.44-60.06L368.00-60.06L382.20-18.75L389.75-60.06L399.85-59.97L388.75 0L367.91 0L354.81-39.77L347.53 0ZM438.98-15.38L438.98-15.38L438.98-15.38Q441.26-13.83 441.26-10.42L441.26-10.42L441.26-10.42Q441.26-7.01 439.53-4.82L439.53-4.82L439.53-4.82Q437.80-2.64 434.98-1.18L434.98-1.18L434.98-1.18Q429.16 1.82 422.88 1.82L422.88 1.82L422.88 1.82Q416.60 1.82 412.91 0.45L412.91 0.45L412.91 0.45Q409.23-0.91 406.77-3.46L406.77-3.46L406.77-3.46Q401.95-8.28 401.95-17.11L401.95-17.11L401.95-17.11Q401.95-30.85 409.41-39.22L409.41-39.22L409.41-39.22Q417.42-48.23 431.34-48.23L431.34-48.23L431.34-48.23Q439.99-48.23 444.26-44.59L444.26-44.59L444.26-44.59Q447.45-41.86 447.45-37.40L447.45-37.40L447.45-37.40Q447.45-21.38 419.78-21.38L419.78-21.38L419.78-21.38Q419.42-19.02 419.42-17.02L419.42-17.02L419.42-17.02Q419.42-12.83 421.28-11.24L421.28-11.24L421.28-11.24Q423.15-9.65 426.61-9.65L426.61-9.65L426.61-9.65Q430.07-9.65 433.75-11.24L433.75-11.24L433.75-11.24Q437.44-12.83 438.98-15.38ZM420.42-25.30L420.42-25.30L420.42-25.30Q426.88-25.30 430.61-29.30L430.61-29.30L430.61-29.30Q434.34-33.12 434.34-39.22L434.34-39.22L434.34-39.22Q434.34-41.31 433.57-42.45L433.57-42.45L433.57-42.45Q432.80-43.59 431.25-43.59L431.25-43.59L431.25-43.59Q429.70-43.59 428.38-43.00L428.38-43.00L428.38-43.00Q427.06-42.41 425.70-40.40L425.70-40.40L425.70-40.40Q422.33-35.85 420.42-25.30ZM518.43-15.20L518.43-15.20Q512.42-6.92 506.64-2.55L506.64-2.55L506.64-2.55Q500.86 1.82 494.90 1.82L494.90 1.82L494.90 1.82Q488.94 1.82 486.85 0.64L486.85 0.64L486.85-19.38L486.85-19.38Q481.66-5.55 472.38-0.18L472.38-0.18L472.38-0.18Q469.01 1.82 465.83 1.82L465.83 1.82L465.83 1.82Q459.73 1.82 457.09 0.64L457.09 0.64L457.09 0.64Q456.46-20.20 455.91-25.98L455.91-25.98L455.91-25.98Q455.36-31.76 454.91-35.31L454.91-35.31L454.91-35.31Q454.00-42.41 450.91-45.32L450.91-45.32L450.91-45.32Q454.82-48.23 460.28-48.23L460.28-48.23L460.28-48.23Q470.83-48.23 472.29-35.13L472.29-35.13L472.29-35.13Q472.65-32.03 472.65-28.76L472.65-28.76L472.65-28.76Q472.65-23.84 471.56-6.73L471.56-6.73L471.56-6.73Q473.75-7.73 476.07-11.33L476.07-11.33L476.07-11.33Q478.39-14.92 480.30-19.84L480.30-19.84L480.30-19.84Q484.58-31.21 484.58-41.04L484.58-41.04L484.58-41.04Q484.58-42.59 484.17-44.23L484.17-44.23L484.17-44.23Q483.76-45.86 483.30-46.32L483.30-46.32L483.30-46.32Q486.49-48.23 491.35-48.23L491.35-48.23L491.35-48.23Q496.22-48.23 498.54-44.91L498.54-44.91L498.54-44.91Q500.86-41.59 501.50-35.49L501.50-35.49L501.50-35.49Q502.23-27.75 502.23-23.11L502.23-23.11L502.23-23.11Q502.23-16.65 501.59-7.10L501.59-7.10L501.59-7.10Q506.14-10.37 509.87-21.11L509.87-21.11L509.87-21.11Q513.60-31.85 513.60-39.49L513.60-39.49L513.60-39.49Q513.60-42.86 513.06-44.86L513.06-44.86L513.06-44.86Q516.06-48.23 521.25-48.23L521.25-48.23L521.25-48.23Q524.43-48.23 526.75-46.50L526.75-46.50L526.75-46.50Q529.07-44.77 529.07-41.54L529.07-41.54L529.07-41.54Q529.07-38.31 528.12-34.85L528.12-34.85L528.12-34.85Q527.16-31.39 525.62-27.85L525.62-27.85L525.62-27.85Q522.61-20.75 518.43-15.20L518.43-15.20ZM558.74-31.94L558.74-31.94L558.74-31.94Q560.01-35.31 560.01-38.22L560.01-38.22L560.01-38.22Q560.01-43.59 555.65-43.59L555.65-43.59L555.65-43.59Q553.37-43.59 551.51-41.54L551.51-41.54L551.51-41.54Q549.64-39.49 549.64-36.95L549.64-36.95L549.64-36.95Q549.64-35.13 551.10-33.67L551.10-33.67L551.10-33.67Q553.19-31.67 558.56-28.39L558.56-28.39L558.56-28.39Q563.93-25.12 565.97-22.43L565.97-22.43L565.97-22.43Q568.02-19.75 568.02-16.06L568.02-16.06L568.02-16.06Q568.02-12.38 566.25-9.01L566.25-9.01L566.25-9.01Q564.47-5.64 561.29-3.28L561.29-3.28L561.29-3.28Q554.46 1.82 543.54 1.82L543.54 1.82L543.54 1.82Q537.63 1.82 533.08-1.27L533.08-1.27L533.08-1.27Q528.53-4.28 528.53-7.83L528.53-7.83L528.53-7.83Q528.53-11.38 531.12-13.47L531.12-13.47L531.12-13.47Q533.72-15.56 537.54-15.56L537.54-15.56L537.54-15.56Q541.36-15.56 543.73-14.11L543.73-14.11L543.73-14.11Q542.54-11.10 542.54-9.10L542.54-9.10L542.54-9.10Q542.54-3.09 547.64-3.09L547.64-3.09L547.64-3.09Q549.82-3.09 551.28-4.46L551.28-4.46L551.28-4.46Q552.73-5.82 552.73-8.19L552.73-8.19L552.73-8.19Q552.73-12.83 544.91-17.75L544.91-17.75L544.91-17.75Q538.54-21.93 537.08-23.57L537.08-23.57L537.08-23.57Q534.63-26.48 534.63-30.12L534.63-30.12L534.63-30.12Q534.63-33.76 536.35-37.22L536.35-37.22L536.35-37.22Q538.08-40.68 541.27-43.13L541.27-43.13L541.27-43.13Q547.91-48.23 559.47-48.23L559.47-48.23L559.47-48.23Q565.38-48.23 568.89-45.86L568.89-45.86L568.89-45.86Q572.39-43.50 572.39-39.49L572.39-39.49L572.39-39.49Q572.39-35.49 569.98-33.21L569.98-33.21L569.98-33.21Q567.57-30.94 563.20-30.94L563.20-30.94L563.20-30.94Q560.20-30.94 558.74-31.94ZM611.34-60.70L611.34-60.70L611.34-60.70Q633.63-60.70 633.63-44.95L633.63-44.95L633.63-44.95Q633.63-36.31 628.08-31.12L628.08-31.12L628.08-31.12Q622.62-25.93 613.07-25.93L613.07-25.93L613.07-25.93Q608.61-25.93 605.15-28.48L605.15-28.48L605.15-28.48Q603.51-29.57 602.42-31.03L602.42-31.03L602.42-31.03Q609.06-31.03 612.57-35.08L612.57-35.08L612.57-35.08Q616.07-39.13 616.07-47.05L616.07-47.05L616.07-47.05Q616.07-54.96 608.24-54.96L608.24-54.96L606.06-54.96L606.06-54.96Q605.51-54.96 605.06-54.87L605.06-54.87L594.59 0L574.85 0L586.04-59.60L586.04-59.60Q595.78-60.52 601.42-60.61L601.42-60.61L601.42-60.61Q607.06-60.70 611.34-60.70ZM655.84-5.00L655.84-5.00L655.84-5.00Q653.02 1.82 644.01 1.82L644.01 1.82L644.01 1.82Q639.46 1.82 636.55-1.36L636.55-1.36L636.55-1.36Q634.18-4.00 634.18-7.01L634.18-7.01L634.18-7.01Q634.18-13.83 637.36-28.76L637.36-28.76L644.01-63.70L662.48-65.52L653.65-19.47L653.65-19.47Q652.11-12.74 652.11-10.37L652.11-10.37L652.11-10.37Q652.11-5.19 655.84-5.00ZM692.78-3.82L692.78-3.82L692.78-3.82Q688.42 1.82 677.59 1.82L677.59 1.82L677.59 1.82Q671.94 1.82 667.85-1.59L667.85-1.59L667.85-1.59Q663.75-5.00 663.75-9.92L663.75-9.92L663.75-9.92Q663.75-12.65 664.03-14.01L664.03-14.01L670.12-46.41L688.60-48.23L681.95-13.10L681.95-13.10Q681.59-11.10 681.59-9.92L681.59-9.92L681.59-9.92Q681.59-4.64 684.78-4.64L684.78-4.64L684.78-4.64Q688.32-4.64 690.87-9.46L690.87-9.46L690.87-9.46Q691.69-11.01 692.06-13.01L692.06-13.01L698.52-46.41L716.44-48.23L709.71-12.74L709.71-12.74Q709.44-11.38 709.44-9.92L709.44-9.92L709.44-9.92Q709.44-8.46 710.26-6.87L710.26-6.87L710.26-6.87Q711.07-5.28 713.71-4.91L713.71-4.91L713.71-4.91Q713.17-2.73 711.26-1.27L711.26-1.27L711.26-1.27Q707.25 1.82 702.93 1.82L702.93 1.82L702.93 1.82Q698.61 1.82 696.06 0.27L696.06 0.27L696.06 0.27Q693.51-1.27 692.78-3.82ZM727.45-38.04L727.45-38.04L727.45-38.04Q730.55-42.41 735.23-45.32L735.23-45.32L735.23-45.32Q739.92-48.23 745.65-48.23L745.65-48.23L745.65-48.23Q751.39-48.23 754.12-46.41L754.12-46.41L771.95-48.23L765.76-13.29L765.76-13.29Q762.58 4.55 755.85 11.56L755.85 11.56L755.85 11.56Q749.38 18.20 736.83 18.20L736.83 18.20L736.83 18.20Q727.27 18.20 721.81 15.20L721.81 15.20L721.81 15.20Q716.35 12.19 716.35 7.19L716.35 7.19L716.35 7.19Q716.35 3.46 719.17 1.32L719.17 1.32L719.17 1.32Q721.99-0.82 726.36-0.82L726.36-0.82L726.36-0.82Q730.18-0.82 733.10 0.91L733.10 0.91L733.10 0.91Q734.83 1.82 735.64 3.09L735.64 3.09L735.64 3.09Q733.55 4.91 733.55 7.92L733.55 7.92L733.55 7.92Q733.55 11.83 737.19 11.83L737.19 11.83L737.19 11.83Q743.29 11.83 746.75-2.55L746.75-2.55L746.75-2.55Q747.75-6.46 748.57-10.37L748.57-10.37L748.57-10.37Q744.47-5.37 735.19-5.37L735.19-5.37L735.19-5.37Q728.73-5.37 725.00-8.46L725.00-8.46L725.00-8.46Q721.27-11.56 721.27-18.84L721.27-18.84L721.27-18.84Q721.27-23.39 722.81-28.53L722.81-28.53L722.81-28.53Q724.36-33.67 727.45-38.04ZM739.28-18.56L739.28-18.56L739.28-18.56Q739.28-12.38 742.47-12.38L742.47-12.38L742.47-12.38Q744.65-12.38 746.75-14.74L746.75-14.74L746.75-14.74Q748.38-16.65 749.02-19.47L749.02-19.47L753.66-42.86L753.66-42.86Q753.21-42.95 752.75-43.13L752.75-43.13L752.75-43.13Q751.84-43.50 750.66-43.50L750.66-43.50L750.66-43.50Q745.11-43.50 741.83-34.40L741.83-34.40L741.83-34.40Q739.28-27.30 739.28-18.56Z" fill="#4b647d"></path></g></g><style>text {
  font-size: 64px;
  font-family: Arial Black;
  dominant-baseline: central;
  text-anchor: middle;
}</style></svg>