<svg width="616.4874877929688px" height="143.63251953125px" xmlns="http://www.w3.org/2000/svg" viewBox="-58.243743896484375 3.1837402343749943 616.4874877929688 143.63251953125" style="background: rgba(0, 0, 0, 0);" preserveAspectRatio="xMidYMid"><defs><filter id="editing-hole" x="-100%" y="-100%" width="300%" height="300%"><feFlood flood-color="#000000" result="black"></feFlood><feMorphology operator="dilate" radius="2" in="SourceGraphic" result="erode"></feMorphology><feGaussianBlur in="erode" stdDeviation="4" result="blur"></feGaussianBlur><feOffset in="blur" dx="2" dy="2" result="offset"></feOffset><feComposite operator="atop" in="offset" in2="black" result="merge"></feComposite><feComposite operator="in" in="merge" in2="SourceGraphic" result="inner-shadow"></feComposite></filter></defs><g filter="url(#editing-hole)"><g transform="translate(27.695003032684326, 104.86499977111816)"><path d="M4.23 0L4.23-44.72L19.30-44.72L19.30-26.46L23.98-26.46L32.63-44.72L47.65-44.72L47.65-41.80L37.38-22.55L49.14-2.93L49.14 0L33.34 0L23.73-17.75L19.30-17.75L19.30 0L4.23 0ZM69.94 0.52L69.94 0.52Q64.55 0.52 60.35-1.66L60.35-1.66L60.35-1.66Q56.16-3.83 53.82-7.64L53.82-7.64L53.82-7.64Q51.48-11.44 51.48-16.25L51.48-16.25L51.48-16.25Q51.48-21.19 53.89-25.03L53.89-25.03L53.89-25.03Q56.29-28.86 60.39-30.94L60.39-30.94L60.39-30.94Q64.48-33.02 69.48-33.02L69.48-33.02L69.48-33.02Q74.30-33.02 77.71-30.91L77.71-30.91L77.71-30.91Q81.12-28.80 82.81-25.19L82.81-25.19L82.81-25.19Q84.50-21.58 84.50-17.09L84.50-17.09L84.50-17.09Q84.50-15.93 84.37-15.41L84.37-15.41L64.87-12.87L64.87-12.87Q65.65-10.60 67.41-9.59L67.41-9.59L67.41-9.59Q69.16-8.58 72.02-8.58L72.02-8.58L72.02-8.58Q76.44-8.58 81.58-10.86L81.58-10.86L83.20-2.15L83.20-2.15Q77.16 0.52 69.94 0.52L69.94 0.52ZM64.35-18.85L74.43-21.06L74.43-21.06Q73.39-25.16 69.48-25.16L69.48-25.16L69.48-25.16Q67.15-25.16 65.78-23.40L65.78-23.40L65.78-23.40Q64.42-21.64 64.35-18.85L64.35-18.85ZM89.25 0L89.25-32.11L102.31-32.11L102.31-25.48L102.31-25.48Q106.08-33.02 114.27-33.02L114.27-33.02L114.27-33.02Q120.51-33.02 124.05-28.57L124.05-28.57L124.05-28.57Q127.59-24.12 127.59-16.25L127.59-16.25L127.59 0L113.95 0L113.95-17.62L113.95-17.62Q113.95-20.41 112.74-21.91L112.74-21.91L112.74-21.91Q111.54-23.40 109.40-23.40L109.40-23.40L109.40-23.40Q107.84-23.40 106.34-22.39L106.34-22.39L106.34-22.39Q104.84-21.39 103.90-19.50L103.90-19.50L103.90-19.50Q102.96-17.62 102.96-15.21L102.96-15.21L102.96 0L89.25 0ZM151.19 14.88L151.19 14.88Q147.62 14.88 144.37 14.17L144.37 14.17L145.41 4.55L145.41 4.55Q147.94 4.94 150.09 4.94L150.09 4.94L150.09 4.94Q153.92 4.94 155.94 2.63L155.94 2.63L155.94 2.63Q157.95 0.33 158.02-6.04L158.02-6.04L158.02-6.04Q154.63 0.46 147.16 0.46L147.16 0.46L147.16 0.46Q140.86 0.46 137.31-4.00L137.31-4.00L137.31-4.00Q133.77-8.45 133.77-16.32L133.77-16.32L133.77-32.56L147.42-32.56L147.42-14.30L147.42-14.30Q147.42-12.09 148.66-10.63L148.66-10.63L148.66-10.63Q149.89-9.17 152.03-9.17L152.03-9.17L152.03-9.17Q154.25-9.17 155.64-11.05L155.64-11.05L155.64-11.05Q157.04-12.94 157.04-15.99L157.04-15.99L157.04-32.56L170.75-32.56L170.75-8.26L170.75-8.26Q170.75 3.06 165.69 8.97L165.69 8.97L165.69 8.97Q160.62 14.88 151.19 14.88L151.19 14.88ZM191.69 0.52L191.69 0.52Q187.46 0.52 183.79-1.72L183.79-1.72L183.79-1.72Q180.11-3.97 177.91-7.83L177.91-7.83L177.91-7.83Q175.69-11.70 175.69-16.45L175.69-16.45L175.69-16.45Q175.69-21.13 177.91-24.93L177.91-24.93L177.91-24.93Q180.11-28.73 183.82-30.88L183.82-30.88L183.82-30.88Q187.53-33.02 191.69-33.02L191.69-33.02L191.69-33.02Q195.06-33.02 197.96-31.14L197.96-31.14L197.96-31.14Q200.85-29.25 202.34-25.48L202.34-25.48L202.34-33.02L216.00-33.02L216.00 0L202.34 0L202.34-6.04L202.34-6.04Q199.09 0.52 191.69 0.52L191.69 0.52ZM195.91-9.75L195.91-9.75Q198.51-9.75 200.36-11.60L200.36-11.60L200.36-11.60Q202.22-13.46 202.34-15.99L202.34-15.99L202.34-16.51L202.34-16.51Q202.22-19.11 200.30-20.93L200.30-20.93L200.30-20.93Q198.38-22.75 195.91-22.75L195.91-22.75L195.91-22.75Q193.18-22.75 191.26-20.83L191.26-20.83L191.26-20.83Q189.34-18.91 189.34-16.25L189.34-16.25L189.34-16.25Q189.34-13.52 191.29-11.63L191.29-11.63L191.29-11.63Q193.25-9.75 195.91-9.75L195.91-9.75ZM242.65 0L242.65-34.84L233.35-34.84L233.35-44.72L267.09-44.72L267.09-34.84L257.79-34.84L257.79 0L242.65 0ZM289.32 0.52L289.32 0.52Q283.86 0.52 279.60-1.63L279.60-1.63L279.60-1.63Q275.34-3.77 272.97-7.57L272.97-7.57L272.97-7.57Q270.60-11.38 270.60-16.32L270.60-16.32L270.60-16.32Q270.60-21.25 273-25.06L273-25.06L273-25.06Q275.41-28.86 279.66-30.94L279.66-30.94L279.66-30.94Q283.92-33.02 289.38-33.02L289.38-33.02L289.38-33.02Q294.91-33.02 299.16-30.91L299.16-30.91L299.16-30.91Q303.42-28.80 305.76-25.03L305.76-25.03L305.76-25.03Q308.10-21.25 308.10-16.32L308.10-16.32L308.10-16.32Q308.10-11.31 305.73-7.51L305.73-7.51L305.73-7.51Q303.36-3.71 299.10-1.59L299.10-1.59L299.10-1.59Q294.84 0.52 289.32 0.52L289.32 0.52ZM289.45-9.23L289.45-9.23Q292.11-9.23 293.83-11.21L293.83-11.21L293.83-11.21Q295.56-13.20 295.56-16.32L295.56-16.32L295.56-16.32Q295.56-19.44 293.83-21.42L293.83-21.42L293.83-21.42Q292.11-23.40 289.45-23.40L289.45-23.40L289.45-23.40Q286.78-23.40 285.06-21.42L285.06-21.42L285.06-21.42Q283.34-19.44 283.34-16.32L283.34-16.32L283.34-16.32Q283.34-13.20 285.06-11.21L285.06-11.21L285.06-11.21Q286.78-9.23 289.45-9.23L289.45-9.23ZM327.21 0.52L327.21 0.52Q322.79 0.52 319.18-1.82L319.18-1.82L319.18-1.82Q315.58-4.16 313.50-8.03L313.50-8.03L313.50-8.03Q311.42-11.89 311.42-16.25L311.42-16.25L311.42-16.25Q311.42-20.87 313.59-24.73L313.59-24.73L313.59-24.73Q315.77-28.60 319.44-30.81L319.44-30.81L319.44-30.81Q323.12-33.02 327.28-33.02L327.28-33.02L327.28-33.02Q331.05-33.02 333.68-31.46L333.68-31.46L333.68-31.46Q336.31-29.90 337.94-26.46L337.94-26.46L337.94-42.84L351.65-44.85L351.65 0L337.94 0L337.94-6.04L337.94-6.04Q334.88 0.52 327.21 0.52L327.21 0.52ZM331.50-9.75L331.50-9.75Q334.23-9.75 336.08-11.70L336.08-11.70L336.08-11.70Q337.94-13.65 337.94-16.25L337.94-16.25L337.94-16.51L337.94-16.51Q337.94-19.05 335.99-20.90L335.99-20.90L335.99-20.90Q334.04-22.75 331.50-22.75L331.50-22.75L331.50-22.75Q328.77-22.75 326.92-20.83L326.92-20.83L326.92-20.83Q325.06-18.91 325.06-16.25L325.06-16.25L325.06-16.25Q325.06-13.52 326.98-11.63L326.98-11.63L326.98-11.63Q328.90-9.75 331.50-9.75L331.50-9.75ZM372.65 0.52L372.65 0.52Q368.42 0.52 364.75-1.72L364.75-1.72L364.75-1.72Q361.08-3.97 358.87-7.83L358.87-7.83L358.87-7.83Q356.66-11.70 356.66-16.45L356.66-16.45L356.66-16.45Q356.66-21.13 358.87-24.93L358.87-24.93L358.87-24.93Q361.08-28.73 364.78-30.88L364.78-30.88L364.78-30.88Q368.49-33.02 372.65-33.02L372.65-33.02L372.65-33.02Q376.03-33.02 378.92-31.14L378.92-31.14L378.92-31.14Q381.81-29.25 383.31-25.48L383.31-25.48L383.31-33.02L396.96-33.02L396.96 0L383.31 0L383.31-6.04L383.31-6.04Q380.06 0.52 372.65 0.52L372.65 0.52ZM376.87-9.75L376.87-9.75Q379.47-9.75 381.32-11.60L381.32-11.60L381.32-11.60Q383.18-13.46 383.31-15.99L383.31-15.99L383.31-16.51L383.31-16.51Q383.18-19.11 381.26-20.93L381.26-20.93L381.26-20.93Q379.34-22.75 376.87-22.75L376.87-22.75L376.87-22.75Q374.14-22.75 372.22-20.83L372.22-20.83L372.22-20.83Q370.31-18.91 370.31-16.25L370.31-16.25L370.31-16.25Q370.31-13.52 372.26-11.63L372.26-11.63L372.26-11.63Q374.21-9.75 376.87-9.75L376.87-9.75ZM420.81 14.88L420.81 14.88Q417.24 14.88 413.99 14.17L413.99 14.17L415.03 4.55L415.03 4.55Q417.56 4.94 419.71 4.94L419.71 4.94L419.71 4.94Q423.54 4.94 425.56 2.63L425.56 2.63L425.56 2.63Q427.57 0.33 427.64-6.04L427.64-6.04L427.64-6.04Q424.26 0.46 416.78 0.46L416.78 0.46L416.78 0.46Q410.48 0.46 406.93-4.00L406.93-4.00L406.93-4.00Q403.39-8.45 403.39-16.32L403.39-16.32L403.39-32.56L417.04-32.56L417.04-14.30L417.04-14.30Q417.04-12.09 418.28-10.63L418.28-10.63L418.28-10.63Q419.51-9.17 421.66-9.17L421.66-9.17L421.66-9.17Q423.87-9.17 425.26-11.05L425.26-11.05L425.26-11.05Q426.66-12.94 426.66-15.99L426.66-15.99L426.66-32.56L440.38-32.56L440.38-8.26L440.38-8.26Q440.38 3.06 435.31 8.97L435.31 8.97L435.31 8.97Q430.24 14.88 420.81 14.88L420.81 14.88Z" fill="#4d4a4a"></path></g></g><style>text {
  font-size: 64px;
  font-family: Arial Black;
  dominant-baseline: central;
  text-anchor: middle;
}</style></svg>