<svg width="560.6849975585938px" height="122.021240234375px" xmlns="http://www.w3.org/2000/svg" viewBox="-30.342498779296875 13.9893798828125 560.6849975585938 122.021240234375" style="background: rgba(0, 0, 0, 0);" preserveAspectRatio="xMidYMid"><defs><filter id="editing-extrusion" x="-100%" y="-100%" width="300%" height="300%"><feFlood result="color1" flood-color="#444"></feFlood><feConvolveMatrix order="8,8" divisor="1" kernelMatrix="1 0 0 0 0 0 0 0 0 1 0 0 0 0 0 0 0 0 1 0 0 0 0 0 0 0 0 1 0 0 0 0 0 0 0 0 1 0 0 0 0 0 0 0 0 1 0 0 0 0 0 0 0 0 1 0 0 0 0 0 0 0 0 1" in="SourceAlpha" result="extrude"></feConvolveMatrix><feComposite in="color1" in2="extrude" result="comp-extrude" operator="in"></feComposite><feOffset dx="4" dy="4" in="comp-extrude" result="offset-extrude"></feOffset><feMerge><feMergeNode in="offset-extrude"></feMergeNode><feMergeNode in="SourceGraphic"></feMergeNode></feMerge></filter></defs><g filter="url(#editing-extrusion)"><g transform="translate(51.57000184059143, 104.46218872070312)"><path d="M14.14 0L0.51 0L7.81-38.91L8.51-42.24L22.21-42.24L14.14 0ZM40.13-3.78L40.13-3.78L40.13-3.78Q38.40 1.28 31.74 1.28L31.74 1.28L31.74 1.28Q26.82 1.28 23.42-4.61L23.42-4.61L23.42-4.61Q19.97-10.50 19.33-20.10L19.33-20.10L19.33-20.10Q26.37-32.96 31.23-38.27L31.23-38.27L31.23-38.27Q35.90-43.33 40.77-43.33L40.77-43.33L40.77-43.33Q43.39-43.33 45.28-41.92L45.28-41.92L45.28-41.92Q47.17-40.51 47.62-38.27L47.62-38.27L47.62-38.27Q45.44-37.38 44.42-36.67L44.42-36.67L44.42-36.67Q41.86-34.75 38.40-30.46L38.40-30.46L32.58-23.49L32.58-23.49Q31.17-21.82 30.59-21.06L30.59-21.06L30.59-21.06Q31.55-15.68 34.43-10.37L34.43-10.37L34.43-10.37Q37.18-5.31 40.13-3.78ZM69.70-10.82L69.70-10.82L69.70-10.82Q71.30-9.73 71.30-7.33L71.30-7.33L71.30-7.33Q71.30-4.93 70.08-3.39L70.08-3.39L70.08-3.39Q68.86-1.86 66.88-0.83L66.88-0.83L66.88-0.83Q62.78 1.28 58.37 1.28L58.37 1.28L58.37 1.28Q53.95 1.28 51.36 0.32L51.36 0.32L51.36 0.32Q48.77-0.64 47.04-2.43L47.04-2.43L47.04-2.43Q43.65-5.82 43.65-12.03L43.65-12.03L43.65-12.03Q43.65-21.70 48.90-27.58L48.90-27.58L48.90-27.58Q54.53-33.92 64.32-33.92L64.32-33.92L64.32-33.92Q70.40-33.92 73.41-31.36L73.41-31.36L73.41-31.36Q75.65-29.44 75.65-26.30L75.65-26.30L75.65-26.30Q75.65-15.04 56.19-15.04L56.19-15.04L56.19-15.04Q55.94-13.38 55.94-11.97L55.94-11.97L55.94-11.97Q55.94-9.02 57.25-7.90L57.25-7.90L57.25-7.90Q58.56-6.78 60.99-6.78L60.99-6.78L60.99-6.78Q63.42-6.78 66.02-7.90L66.02-7.90L66.02-7.90Q68.61-9.02 69.70-10.82ZM56.64-17.79L56.64-17.79L56.64-17.79Q61.18-17.79 63.81-20.61L63.81-20.61L63.81-20.61Q66.43-23.30 66.43-27.58L66.43-27.58L66.43-27.58Q66.43-29.06 65.89-29.86L65.89-29.86L65.89-29.86Q65.34-30.66 64.26-30.66L64.26-30.66L64.26-30.66Q63.17-30.66 62.24-30.24L62.24-30.24L62.24-30.24Q61.31-29.82 60.35-28.42L60.35-28.42L60.35-28.42Q57.98-25.22 56.64-17.79ZM104.90 1.28L104.90 1.28L104.90 1.28Q97.15 1.28 97.15-4.74L97.15-4.74L97.15-4.74Q97.22-6.40 97.73-9.22L97.73-9.22L98.88-15.10L98.88-15.10Q100.61-23.42 100.61-25.28L100.61-25.28L100.61-25.28Q100.61-28.99 98.43-28.99L98.43-28.99L98.43-28.99Q94.78-28.99 92.86-19.46L92.86-19.46L89.09 0L76.22 1.28L82.88-32.70L93.38-33.92L92.35-27.65L92.35-27.65Q95.36-33.92 104.58-33.92L104.58-33.92L104.58-33.92Q109.06-33.92 110.94-32.03L110.94-32.03L110.94-32.03Q112.83-30.14 112.83-25.92L112.83-25.92L112.83-25.92Q112.83-21.95 110.78-12.67L110.78-12.67L110.78-12.67Q109.82-8.51 109.82-6.94L109.82-6.94L109.82-6.94Q109.82-5.38 110.69-4.48L110.69-4.48L110.69-4.48Q111.55-3.58 112.83-3.46L112.83-3.46L112.83-3.46Q112.19-1.28 109.98 0L109.98 0L109.98 0Q107.78 1.28 104.90 1.28ZM138.30-7.23L138.30-7.23L138.30-7.23Q134.98-3.78 128.90-3.78L128.90-3.78L128.90-3.78Q121.28-3.78 119.68-9.34L119.68-9.34L119.68-9.34Q119.17-11.01 119.17-12.86L119.17-12.86L119.17-12.86Q119.17-14.72 119.55-16.64L119.55-16.64L122.56-32.64L135.55-33.92L132.03-15.30L132.03-15.30Q131.90-14.46 131.71-13.57L131.71-13.57L131.71-13.57Q131.52-12.67 131.52-11.74L131.52-11.74L131.52-11.74Q131.52-10.82 131.84-10.21L131.84-10.21L131.84-10.21Q132.16-9.60 132.61-9.22L132.61-9.22L132.61-9.22Q133.38-8.70 134.75-8.70L134.75-8.70L134.75-8.70Q136.13-8.70 137.31-10.37L137.31-10.37L137.31-10.37Q138.50-12.03 139.07-14.91L139.07-14.91L142.59-32.64L155.20-33.92L150.40-8.77L150.40-8.77Q148.03 3.52 143.17 8.38L143.17 8.38L143.17 8.38Q140.67 10.88 137.44 11.87L137.44 11.87L137.44 11.87Q134.21 12.86 130.05 12.86L130.05 12.86L130.05 12.86Q123.33 12.86 119.49 10.75L119.49 10.75L119.49 10.75Q115.65 8.64 115.65 5.12L115.65 5.12L115.65 5.12Q115.65 2.50 117.63 0.99L117.63 0.99L117.63 0.99Q119.62-0.51 122.69-0.51L122.69-0.51L122.69-0.51Q125.38-0.51 127.42 0.64L127.42 0.64L127.42 0.64Q128.64 1.34 129.22 2.24L129.22 2.24L129.22 2.24Q127.74 3.52 127.74 5.63L127.74 5.63L127.74 5.63Q127.74 8.45 130.30 8.45L130.30 8.45L130.30 8.45Q134.53 8.45 136.96-1.28L136.96-1.28L136.96-1.28Q137.66-4.16 138.30-7.23ZM160.29-1.92L160.29-1.92L160.29-1.92Q158.78-3.58 158.11-6.21L158.11-6.21L158.11-6.21Q157.44-8.83 157.44-13.12L157.44-13.12L157.44-13.12Q157.44-17.41 158.91-21.31L158.91-21.31L158.91-21.31Q160.38-25.22 163.07-28.03L163.07-28.03L163.07-28.03Q168.58-33.92 177.66-33.92L177.66-33.92L177.66-33.92Q180.93-33.92 183.30-32.83L183.30-32.83L194.24-33.92L189.50-8.96L189.50-8.96Q189.31-8.19 189.31-6.78L189.31-6.78L189.31-6.78Q189.31-5.38 190.18-4.48L190.18-4.48L190.18-4.48Q191.04-3.58 192.32-3.46L192.32-3.46L192.32-3.46Q191.68-1.28 189.34 0L189.34 0L189.34 0Q187.01 1.28 184.38 1.28L184.38 1.28L184.38 1.28Q181.76 1.28 180 0.29L180 0.29L180 0.29Q178.24-0.70 177.73-2.37L177.73-2.37L177.73-2.37Q176.70-0.77 174.53 0.26L174.53 0.26L174.53 0.26Q172.35 1.28 169.44 1.28L169.44 1.28L169.44 1.28Q166.53 1.28 164.16 0.51L164.16 0.51L164.16 0.51Q161.79-0.26 160.29-1.92ZM173.79-27.90L173.79-27.90L173.79-27.90Q173.06-26.75 172.42-24.80L172.42-24.80L172.42-24.80Q171.78-22.85 170.72-17.63L170.72-17.63L170.72-17.63Q169.66-12.42 169.66-8.70L169.66-8.70L169.66-8.70Q169.66-4.99 170.24-3.90L170.24-3.90L170.24-3.90Q170.82-2.82 171.84-2.82L171.84-2.82L171.84-2.82Q173.89-2.82 175.39-4.77L175.39-4.77L175.39-4.77Q176.90-6.72 177.47-10.18L177.47-10.18L180.86-28.93L180.86-28.93Q179.52-30.08 177.95-30.08L177.95-30.08L177.95-30.08Q176.38-30.08 175.46-29.57L175.46-29.57L175.46-29.57Q174.53-29.06 173.79-27.90ZM216-31.17L216-31.17L216-31.17Q213.82-32.83 213.82-36.38L213.82-36.38L213.82-36.38Q213.82-39.94 216.16-41.79L216.16-41.79L216.16-41.79Q218.50-43.65 222.53-43.65L222.53-43.65L222.53-43.65Q225.09-43.65 231.17-42.75L231.17-42.75L235.52-42.11L235.52-42.11Q237.70-41.86 239.97-41.86L239.97-41.86L239.97-41.86Q242.24-41.86 243.78-42.82L243.78-42.82L243.78-42.82Q246.08-40.77 246.08-37.82L246.08-37.82L246.08-37.82Q246.08-34.88 243.46-32.77L243.46-32.77L243.46-32.77Q240.77-30.53 237.31-30.53L237.31-30.53L237.31-30.53Q235.65-30.53 232.96-30.98L232.96-30.98L232.96-30.98Q229.82-21.12 229.82-14.27L229.82-14.27L229.82-14.27Q229.82-7.42 233.28-3.84L233.28-3.84L233.28-3.84Q231.68-0.96 229.31 0.16L229.31 0.16L229.31 0.16Q226.94 1.28 223.39 1.28L223.39 1.28L223.39 1.28Q219.84 1.28 217.63-0.67L217.63-0.67L217.63-0.67Q215.42-2.62 215.42-6.66L215.42-6.66L215.42-6.66Q215.42-11.33 217.98-19.01L217.98-19.01L217.98-19.01Q220.54-26.62 224.38-32.45L224.38-32.45L224.38-32.45Q222.53-32.64 220.61-32.64L220.61-32.64L220.61-32.64Q216.64-32.64 216-31.17ZM255.04 1.28L255.04 1.28L255.04 1.28Q240.96 1.28 240.96-11.97L240.96-11.97L240.96-11.97Q240.96-21.38 246.14-27.46L246.14-27.46L246.14-27.46Q251.65-33.92 261.18-33.92L261.18-33.92L261.18-33.92Q268.10-33.92 271.62-30.72L271.62-30.72L271.62-30.72Q275.14-27.52 275.14-20.80L275.14-20.80L275.14-20.80Q275.14-10.56 269.63-4.61L269.63-4.61L269.63-4.61Q264.26 1.28 255.04 1.28ZM256.70-26.56L256.70-26.56L256.70-26.56Q255.94-24.83 255.33-22.24L255.33-22.24L255.33-22.24Q254.72-19.65 253.95-15.55L253.95-15.55L253.95-15.55Q253.18-11.46 253.18-6.40L253.18-6.40L253.18-6.40Q253.18-4.74 253.73-3.65L253.73-3.65L253.73-3.65Q254.27-2.56 255.74-2.56L255.74-2.56L255.74-2.56Q257.22-2.56 258.14-3.26L258.14-3.26L258.14-3.26Q259.07-3.97 259.78-5.63L259.78-5.63L259.78-5.63Q261.06-8.58 262.08-14.05L262.08-14.05L262.08-14.05Q263.10-19.52 263.20-21.89L263.20-21.89L263.20-21.89Q263.30-24.26 263.30-26.02L263.30-26.02L263.30-26.02Q263.30-27.78 262.78-28.93L262.78-28.93L262.78-28.93Q262.27-30.08 260.83-30.08L260.83-30.08L260.83-30.08Q259.39-30.08 258.43-29.18L258.43-29.18L258.43-29.18Q257.47-28.29 256.70-26.56ZM299.07-33.92L299.07-33.92L299.07-33.92Q301.38-33.92 303.17-33.41L303.17-33.41L303.17-33.41Q303.23-33.66 303.36-34.37L303.36-34.37L303.68-36.35L303.68-36.35Q303.94-37.63 304.32-39.74L304.32-39.74L305.34-44.80L318.08-46.08L310.98-8.96L310.98-8.96Q310.91-8.58 310.91-7.94L310.91-7.94L310.91-6.91L310.91-6.91Q310.91-5.50 311.62-4.45L311.62-4.45L311.62-4.45Q312.32-3.39 313.47-3.39L313.47-3.39L313.47-3.39Q312.19-0.38 308.29 0.90L308.29 0.90L308.29 0.90Q306.94 1.28 305.06 1.28L305.06 1.28L305.06 1.28Q303.17 1.28 301.44 0.29L301.44 0.29L301.44 0.29Q299.71-0.70 299.20-2.37L299.20-2.37L299.20-2.37Q298.18-0.70 296.13 0.29L296.13 0.29L296.13 0.29Q294.08 1.28 291.10 1.28L291.10 1.28L291.10 1.28Q288.13 1.28 285.66 0.51L285.66 0.51L285.66 0.51Q283.20-0.26 281.66-1.92L281.66-1.92L281.66-1.92Q278.85-5.18 278.85-12.61L278.85-12.61L278.85-12.61Q278.85-22.21 284.48-28.03L284.48-28.03L284.48-28.03Q290.11-33.92 299.07-33.92ZM298.62-30.08L298.62-30.08L298.62-30.08Q296.26-30.08 294.98-27.52L294.98-27.52L294.98-27.52Q293.70-24.96 292.38-18.62L292.38-18.62L292.38-18.62Q291.07-12.29 291.07-6.59L291.07-6.59L291.07-6.59Q291.07-2.69 293.38-2.69L293.38-2.69L293.38-2.69Q295.42-2.69 296.86-4.74L296.86-4.74L296.86-4.74Q298.30-6.78 298.88-10.18L298.88-10.18L302.34-28.93L302.34-28.93Q300.99-30.08 298.62-30.08ZM321.70-1.92L321.70-1.92L321.70-1.92Q320.19-3.58 319.52-6.21L319.52-6.21L319.52-6.21Q318.85-8.83 318.85-13.12L318.85-13.12L318.85-13.12Q318.85-17.41 320.32-21.31L320.32-21.31L320.32-21.31Q321.79-25.22 324.48-28.03L324.48-28.03L324.48-28.03Q329.98-33.92 339.07-33.92L339.07-33.92L339.07-33.92Q342.34-33.92 344.70-32.83L344.70-32.83L355.65-33.92L350.91-8.96L350.91-8.96Q350.72-8.19 350.72-6.78L350.72-6.78L350.72-6.78Q350.72-5.38 351.58-4.48L351.58-4.48L351.58-4.48Q352.45-3.58 353.73-3.46L353.73-3.46L353.73-3.46Q353.09-1.28 350.75 0L350.75 0L350.75 0Q348.42 1.28 345.79 1.28L345.79 1.28L345.79 1.28Q343.17 1.28 341.41 0.29L341.41 0.29L341.41 0.29Q339.65-0.70 339.14-2.37L339.14-2.37L339.14-2.37Q338.11-0.77 335.94 0.26L335.94 0.26L335.94 0.26Q333.76 1.28 330.85 1.28L330.85 1.28L330.85 1.28Q327.94 1.28 325.57 0.51L325.57 0.51L325.57 0.51Q323.20-0.26 321.70-1.92ZM335.20-27.90L335.20-27.90L335.20-27.90Q334.46-26.75 333.82-24.80L333.82-24.80L333.82-24.80Q333.18-22.85 332.13-17.63L332.13-17.63L332.13-17.63Q331.07-12.42 331.07-8.70L331.07-8.70L331.07-8.70Q331.07-4.99 331.65-3.90L331.65-3.90L331.65-3.90Q332.22-2.82 333.25-2.82L333.25-2.82L333.25-2.82Q335.30-2.82 336.80-4.77L336.80-4.77L336.80-4.77Q338.30-6.72 338.88-10.18L338.88-10.18L342.27-28.93L342.27-28.93Q340.93-30.08 339.36-30.08L339.36-30.08L339.36-30.08Q337.79-30.08 336.86-29.57L336.86-29.57L336.86-29.57Q335.94-29.06 335.20-27.90ZM379.46-7.23L379.46-7.23L379.46-7.23Q376.13-3.78 370.05-3.78L370.05-3.78L370.05-3.78Q362.43-3.78 360.83-9.34L360.83-9.34L360.83-9.34Q360.32-11.01 360.32-12.86L360.32-12.86L360.32-12.86Q360.32-14.72 360.70-16.64L360.70-16.64L363.71-32.64L376.70-33.92L373.18-15.30L373.18-15.30Q373.06-14.46 372.86-13.57L372.86-13.57L372.86-13.57Q372.67-12.67 372.67-11.74L372.67-11.74L372.67-11.74Q372.67-10.82 372.99-10.21L372.99-10.21L372.99-10.21Q373.31-9.60 373.76-9.22L373.76-9.22L373.76-9.22Q374.53-8.70 375.90-8.70L375.90-8.70L375.90-8.70Q377.28-8.70 378.46-10.37L378.46-10.37L378.46-10.37Q379.65-12.03 380.22-14.91L380.22-14.91L383.74-32.64L396.35-33.92L391.55-8.77L391.55-8.77Q389.18 3.52 384.32 8.38L384.32 8.38L384.32 8.38Q381.82 10.88 378.59 11.87L378.59 11.87L378.59 11.87Q375.36 12.86 371.20 12.86L371.20 12.86L371.20 12.86Q364.48 12.86 360.64 10.75L360.64 10.75L360.64 10.75Q356.80 8.64 356.80 5.12L356.80 5.12L356.80 5.12Q356.80 2.50 358.78 0.99L358.78 0.99L358.78 0.99Q360.77-0.51 363.84-0.51L363.84-0.51L363.84-0.51Q366.53-0.51 368.58 0.64L368.58 0.64L368.58 0.64Q369.79 1.34 370.37 2.24L370.37 2.24L370.37 2.24Q368.90 3.52 368.90 5.63L368.90 5.63L368.90 5.63Q368.90 8.45 371.46 8.45L371.46 8.45L371.46 8.45Q375.68 8.45 378.11-1.28L378.11-1.28L378.11-1.28Q378.82-4.16 379.46-7.23Z" fill="#ccc"></path></g></g><style>text {
  font-size: 64px;
  font-family: Arial Black;
  dominant-baseline: central;
  text-anchor: middle;
}</style></svg>