<svg width="965.4336669921875px" height="147.20249023437498px" xmlns="http://www.w3.org/2000/svg" viewBox="-232.71683349609373 1.3987548828125114 965.4336669921875 147.20249023437498" style="background: rgba(0, 0, 0, 0);" preserveAspectRatio="xMidYMid"><defs><filter id="editing-hole" x="-100%" y="-100%" width="300%" height="300%"><feFlood flood-color="#000000" result="black"></feFlood><feMorphology operator="dilate" radius="2" in="SourceGraphic" result="erode"></feMorphology><feGaussianBlur in="erode" stdDeviation="4" result="blur"></feGaussianBlur><feOffset in="blur" dx="2" dy="2" result="offset"></feOffset><feComposite operator="atop" in="offset" in2="black" result="merge"></feComposite><feComposite operator="in" in="merge" in2="SourceGraphic" result="inner-shadow"></feComposite></filter></defs><g filter="url(#editing-hole)"><g transform="translate(-96.62341922521591, 111.11000061035156)"><path d="M19.50 0L19.50-48.15L0.90-48.15L0.90-53.40L44.32-53.40L44.32-48.15L25.72-48.15L25.72 0L19.50 0ZM69.90-38.63L69.90-38.63Q83.47-38.63 83.47-23.70L83.47-23.70L83.47 0L77.40 0L77.40-23.40L77.40-23.40Q77.40-28.65 75.30-31.09L75.30-31.09L75.30-31.09Q73.20-33.52 68.70-33.52L68.70-33.52L68.70-33.52Q63.45-33.52 60.30-30.30L60.30-30.30L60.30-30.30Q57.15-27.07 57.15-21.60L57.15-21.60L57.15 0L51.08 0L51.08-55.20L57.15-55.20L57.15-31.57L57.15-31.57Q58.95-35.02 62.29-36.82L62.29-36.82L62.29-36.82Q65.63-38.63 69.90-38.63L69.90-38.63ZM126.52-20.18L126.52-19.05L98.85-19.05L98.85-19.05Q98.92-11.85 102.19-8.17L102.19-8.17L102.19-8.17Q105.45-4.50 111.67-4.50L111.67-4.50L111.67-4.50Q118.27-4.50 123.82-8.92L123.82-8.92L125.85-4.50L125.85-4.50Q123.38-2.17 119.51-0.82L119.51-0.82L119.51-0.82Q115.65 0.53 111.60 0.53L111.60 0.53L111.60 0.53Q102.75 0.53 97.72-4.69L97.72-4.69L97.72-4.69Q92.70-9.90 92.70-18.97L92.70-18.97L92.70-18.97Q92.70-24.75 94.95-29.21L94.95-29.21L94.95-29.21Q97.20-33.67 101.25-36.15L101.25-36.15L101.25-36.15Q105.30-38.63 110.47-38.63L110.47-38.63L110.47-38.63Q117.97-38.63 122.25-33.71L122.25-33.71L122.25-33.71Q126.52-28.80 126.52-20.18L126.52-20.18ZM110.55-33.90L110.55-33.90Q105.82-33.90 102.86-31.05L102.86-31.05L102.86-31.05Q99.90-28.20 99.07-23.02L99.07-23.02L121.05-23.02L121.05-23.02Q120.60-28.35 117.94-31.13L117.94-31.13L117.94-31.13Q115.27-33.90 110.55-33.90L110.55-33.90ZM178.20 0L170.17 0L142.65-25.43L142.65 0L136.50 0L136.50-53.40L142.65-53.40L142.65-28.88L168.90-53.40L176.77-53.40L148.87-27.38L178.20 0ZM214.88-20.18L214.88-19.05L187.20-19.05L187.20-19.05Q187.27-11.85 190.54-8.17L190.54-8.17L190.54-8.17Q193.80-4.50 200.02-4.50L200.02-4.50L200.02-4.50Q206.63-4.50 212.17-8.92L212.17-8.92L214.20-4.50L214.20-4.50Q211.72-2.17 207.86-0.82L207.86-0.82L207.86-0.82Q204 0.53 199.95 0.53L199.95 0.53L199.95 0.53Q191.10 0.53 186.07-4.69L186.07-4.69L186.07-4.69Q181.05-9.90 181.05-18.97L181.05-18.97L181.05-18.97Q181.05-24.75 183.30-29.21L183.30-29.21L183.30-29.21Q185.55-33.67 189.60-36.15L189.60-36.15L189.60-36.15Q193.65-38.63 198.82-38.63L198.82-38.63L198.82-38.63Q206.32-38.63 210.60-33.71L210.60-33.71L210.60-33.71Q214.88-28.80 214.88-20.18L214.88-20.18ZM198.90-33.90L198.90-33.90Q194.17-33.90 191.21-31.05L191.21-31.05L191.21-31.05Q188.25-28.20 187.42-23.02L187.42-23.02L209.40-23.02L209.40-23.02Q208.95-28.35 206.29-31.13L206.29-31.13L206.29-31.13Q203.63-33.90 198.90-33.90L198.90-33.90ZM242.93-38.63L242.93-38.63Q256.50-38.63 256.50-23.70L256.50-23.70L256.50 0L250.43 0L250.43-23.40L250.43-23.40Q250.43-28.65 248.32-31.09L248.32-31.09L248.32-31.09Q246.22-33.52 241.72-33.52L241.72-33.52L241.72-33.52Q236.47-33.52 233.32-30.30L233.32-30.30L233.32-30.30Q230.18-27.07 230.18-21.60L230.18-21.60L230.18 0L224.10 0L224.10-27.15L224.10-27.15Q224.10-33 223.50-37.73L223.50-37.73L229.28-37.73L229.88-30.97L229.88-30.97Q231.60-34.65 235.05-36.64L235.05-36.64L235.05-36.64Q238.50-38.63 242.93-38.63L242.93-38.63ZM295.05-37.73L301.13-37.73L283.50 3.45L283.50 3.45Q280.73 9.90 276.52 12.90L276.52 12.90L276.52 12.90Q272.32 15.90 266.18 17.02L266.18 17.02L264.90 12.30L264.90 12.30Q270.23 11.10 272.96 9.11L272.96 9.11L272.96 9.11Q275.70 7.13 277.50 3L277.50 3L279-0.38L263.02-37.73L269.40-37.73L282.15-6.60L295.05-37.73ZM335.02-37.73L341.02-37.73L341.02 0L335.02 0L335.02-6.83L335.02-6.83Q333.38-3.30 330.04-1.39L330.04-1.39L330.04-1.39Q326.70 0.53 322.27 0.53L322.27 0.53L322.27 0.53Q317.25 0.53 313.46-1.88L313.46-1.88L313.46-1.88Q309.68-4.27 307.61-8.66L307.61-8.66L307.61-8.66Q305.55-13.05 305.55-18.90L305.55-18.90L305.55-18.90Q305.55-24.75 307.65-29.21L307.65-29.21L307.65-29.21Q309.75-33.67 313.54-36.15L313.54-36.15L313.54-36.15Q317.32-38.63 322.27-38.63L322.27-38.63L322.27-38.63Q326.70-38.63 330-36.67L330-36.67L330-36.67Q333.30-34.73 335.02-31.20L335.02-31.20L335.02-37.73ZM323.47-4.50L323.47-4.50Q329.02-4.50 332.02-8.29L332.02-8.29L332.02-8.29Q335.02-12.07 335.02-19.05L335.02-19.05L335.02-19.05Q335.02-26.02 332.02-29.77L332.02-29.77L332.02-29.77Q329.02-33.52 323.47-33.52L323.47-33.52L323.47-33.52Q317.93-33.52 314.81-29.66L314.81-29.66L314.81-29.66Q311.70-25.80 311.70-18.90L311.70-18.90L311.70-18.90Q311.70-12 314.77-8.25L314.77-8.25L314.77-8.25Q317.85-4.50 323.47-4.50L323.47-4.50ZM371.63-38.63L371.63-38.63Q385.20-38.63 385.20-23.70L385.20-23.70L385.20 0L379.13 0L379.13-23.40L379.13-23.40Q379.13-28.65 377.02-31.09L377.02-31.09L377.02-31.09Q374.93-33.52 370.43-33.52L370.43-33.52L370.43-33.52Q365.18-33.52 362.02-30.30L362.02-30.30L362.02-30.30Q358.88-27.07 358.88-21.60L358.88-21.60L358.88 0L352.80 0L352.80-27.15L352.80-27.15Q352.80-33 352.20-37.73L352.20-37.73L357.97-37.73L358.57-30.97L358.57-30.97Q360.30-34.65 363.75-36.64L363.75-36.64L363.75-36.64Q367.20-38.63 371.63-38.63L371.63-38.63ZM432.60-18.07L439.35 0L432.82 0L426.22-17.77L426.22-17.77Q425.02-21.07 422.89-22.20L422.89-22.20L422.89-22.20Q420.75-23.32 416.85-23.32L416.85-23.32L403.50-23.32L403.50 0L397.43 0L397.43-53.40L418.65-53.40L418.65-53.40Q427.27-53.40 431.89-49.57L431.89-49.57L431.89-49.57Q436.50-45.75 436.50-38.55L436.50-38.55L436.50-38.55Q436.50-33.30 433.76-29.74L433.76-29.74L433.76-29.74Q431.02-26.18 425.85-24.68L425.85-24.68L425.85-24.68Q428.18-24.30 429.82-22.69L429.82-22.69L429.82-22.69Q431.47-21.07 432.60-18.07L432.60-18.07ZM403.50-28.43L418.13-28.43L418.13-28.43Q430.43-28.43 430.43-38.48L430.43-38.48L430.43-38.48Q430.43-43.42 427.43-45.86L427.43-45.86L427.43-45.86Q424.43-48.30 418.13-48.30L418.13-48.30L403.50-48.30L403.50-28.43ZM480.23-20.18L480.23-19.05L452.55-19.05L452.55-19.05Q452.63-11.85 455.89-8.17L455.89-8.17L455.89-8.17Q459.15-4.50 465.38-4.50L465.38-4.50L465.38-4.50Q471.98-4.50 477.53-8.92L477.53-8.92L479.55-4.50L479.55-4.50Q477.07-2.17 473.21-0.82L473.21-0.82L473.21-0.82Q469.35 0.53 465.30 0.53L465.30 0.53L465.30 0.53Q456.45 0.53 451.43-4.69L451.43-4.69L451.43-4.69Q446.40-9.90 446.40-18.97L446.40-18.97L446.40-18.97Q446.40-24.75 448.65-29.21L448.65-29.21L448.65-29.21Q450.90-33.67 454.95-36.15L454.95-36.15L454.95-36.15Q459-38.63 464.18-38.63L464.18-38.63L464.18-38.63Q471.68-38.63 475.95-33.71L475.95-33.71L475.95-33.71Q480.23-28.80 480.23-20.18L480.23-20.18ZM464.25-33.90L464.25-33.90Q459.53-33.90 456.56-31.05L456.56-31.05L456.56-31.05Q453.60-28.20 452.78-23.02L452.78-23.02L474.75-23.02L474.75-23.02Q474.30-28.35 471.64-31.13L471.64-31.13L471.64-31.13Q468.98-33.90 464.25-33.90L464.25-33.90ZM508.28-38.63L508.28-38.63Q513.23-38.63 517.05-36.15L517.05-36.15L517.05-36.15Q520.88-33.67 522.98-29.21L522.98-29.21L522.98-29.21Q525.08-24.75 525.08-18.90L525.08-18.90L525.08-18.90Q525.08-13.05 522.98-8.66L522.98-8.66L522.98-8.66Q520.88-4.27 517.09-1.88L517.09-1.88L517.09-1.88Q513.30 0.53 508.28 0.53L508.28 0.53L508.28 0.53Q503.85 0.53 500.55-1.43L500.55-1.43L500.55-1.43Q497.25-3.38 495.53-6.97L495.53-6.97L495.53 16.20L489.45 16.20L489.45-27.15L489.45-27.15Q489.45-33 488.85-37.73L488.85-37.73L494.63-37.73L495.23-30.45L495.23-30.45Q496.80-34.35 500.21-36.49L500.21-36.49L500.21-36.49Q503.63-38.63 508.28-38.63L508.28-38.63ZM507.15-4.50L507.15-4.50Q512.70-4.50 515.74-8.25L515.74-8.25L515.74-8.25Q518.77-12 518.77-18.90L518.77-18.90L518.77-18.90Q518.77-25.80 515.70-29.66L515.70-29.66L515.70-29.66Q512.63-33.52 507.15-33.52L507.15-33.52L507.15-33.52Q501.53-33.52 498.53-29.77L498.53-29.77L498.53-29.77Q495.53-26.02 495.53-19.05L495.53-19.05L495.53-19.05Q495.53-12.07 498.53-8.29L498.53-8.29L498.53-8.29Q501.53-4.50 507.15-4.50L507.15-4.50ZM550.05 0.53L550.05 0.53Q544.73 0.53 540.68-1.88L540.68-1.88L540.68-1.88Q536.63-4.27 534.41-8.70L534.41-8.70L534.41-8.70Q532.20-13.13 532.20-19.05L532.20-19.05L532.20-19.05Q532.20-24.97 534.41-29.40L534.41-29.40L534.41-29.40Q536.63-33.82 540.68-36.23L540.68-36.23L540.68-36.23Q544.73-38.63 550.05-38.63L550.05-38.63L550.05-38.63Q555.38-38.63 559.43-36.23L559.43-36.23L559.43-36.23Q563.48-33.82 565.69-29.40L565.69-29.40L565.69-29.40Q567.90-24.97 567.90-19.05L567.90-19.05L567.90-19.05Q567.90-13.13 565.69-8.70L565.69-8.70L565.69-8.70Q563.48-4.27 559.43-1.88L559.43-1.88L559.43-1.88Q555.38 0.53 550.05 0.53L550.05 0.53ZM550.05-4.50L550.05-4.50Q555.68-4.50 558.68-8.21L558.68-8.21L558.68-8.21Q561.68-11.92 561.68-19.05L561.68-19.05L561.68-19.05Q561.68-25.95 558.60-29.74L558.60-29.74L558.60-29.74Q555.52-33.52 550.05-33.52L550.05-33.52L550.05-33.52Q544.50-33.52 541.43-29.74L541.43-29.74L541.43-29.74Q538.35-25.95 538.35-19.05L538.35-19.05L538.35-19.05Q538.35-11.92 541.39-8.21L541.39-8.21L541.39-8.21Q544.43-4.50 550.05-4.50L550.05-4.50ZM594.90-38.63L594.90-38.63Q596.77-38.63 598.35-38.17L598.35-38.17L598.20-32.63L598.20-32.63Q596.48-33.23 594.23-33.23L594.23-33.23L594.23-33.23Q588.75-33.23 586.09-29.81L586.09-29.81L586.09-29.81Q583.42-26.40 583.42-21.52L583.42-21.52L583.42 0L577.35 0L577.35-27.15L577.35-27.15Q577.35-33 576.75-37.73L576.75-37.73L582.52-37.73L583.13-30.75L583.13-30.75Q584.55-34.57 587.70-36.60L587.70-36.60L587.70-36.60Q590.85-38.63 594.90-38.63L594.90-38.63ZM623.40-32.92L612.60-32.92L612.60-12.30L612.60-12.30Q612.60-8.10 614.32-6.41L614.32-6.41L614.32-6.41Q616.05-4.72 619.20-4.72L619.20-4.72L619.20-4.72Q621.30-4.72 623.25-5.40L623.25-5.40L623.25-0.22L623.25-0.22Q620.92 0.53 618 0.53L618 0.53L618 0.53Q612.60 0.53 609.56-2.51L609.56-2.51L609.56-2.51Q606.52-5.55 606.52-11.47L606.52-11.47L606.52-32.92L599.17-32.92L599.17-37.73L606.52-37.73L606.52-47.40L612.60-49.57L612.60-37.73L623.40-37.73L623.40-32.92ZM662.32-20.18L662.32-19.05L634.65-19.05L634.65-19.05Q634.73-11.85 637.99-8.17L637.99-8.17L637.99-8.17Q641.25-4.50 647.48-4.50L647.48-4.50L647.48-4.50Q654.07-4.50 659.63-8.92L659.63-8.92L661.65-4.50L661.65-4.50Q659.17-2.17 655.31-0.82L655.31-0.82L655.31-0.82Q651.45 0.53 647.40 0.53L647.40 0.53L647.40 0.53Q638.55 0.53 633.52-4.69L633.52-4.69L633.52-4.69Q628.50-9.90 628.50-18.97L628.50-18.97L628.50-18.97Q628.50-24.75 630.75-29.21L630.75-29.21L630.75-29.21Q633-33.67 637.05-36.15L637.05-36.15L637.05-36.15Q641.10-38.63 646.27-38.63L646.27-38.63L646.27-38.63Q653.77-38.63 658.05-33.71L658.05-33.71L658.05-33.71Q662.32-28.80 662.32-20.18L662.32-20.18ZM646.35-33.90L646.35-33.90Q641.63-33.90 638.66-31.05L638.66-31.05L638.66-31.05Q635.70-28.20 634.88-23.02L634.88-23.02L656.85-23.02L656.85-23.02Q656.40-28.35 653.74-31.13L653.74-31.13L653.74-31.13Q651.07-33.90 646.35-33.90L646.35-33.90ZM689.10-38.63L689.10-38.63Q690.97-38.63 692.55-38.17L692.55-38.17L692.40-32.63L692.40-32.63Q690.67-33.23 688.42-33.23L688.42-33.23L688.42-33.23Q682.95-33.23 680.29-29.81L680.29-29.81L680.29-29.81Q677.62-26.40 677.62-21.52L677.62-21.52L677.62 0L671.55 0L671.55-27.15L671.55-27.15Q671.55-33 670.95-37.73L670.95-37.73L676.72-37.73L677.32-30.75L677.32-30.75Q678.75-34.57 681.90-36.60L681.90-36.60L681.90-36.60Q685.05-38.63 689.10-38.63L689.10-38.63Z" fill="#000000"></path></g></g><style>text {
  font-size: 64px;
  font-family: Arial Black;
  dominant-baseline: central;
  text-anchor: middle;
}</style></svg>